<?xml version="1.0" encoding="UTF-8" standalone="no"?>
<!-- Created with Inkscape (http://www.inkscape.org/) -->

<svg
   xmlns:dc="http://purl.org/dc/elements/1.1/"
   xmlns:cc="http://creativecommons.org/ns#"
   xmlns:rdf="http://www.w3.org/1999/02/22-rdf-syntax-ns#"
   xmlns:svg="http://www.w3.org/2000/svg"
   xmlns="http://www.w3.org/2000/svg"
   xmlns:sodipodi="http://sodipodi.sourceforge.net/DTD/sodipodi-0.dtd"
   xmlns:inkscape="http://www.inkscape.org/namespaces/inkscape"
   width="346.66666"
   height="346.66666"
   viewBox="0 0 325.00001 324.99998"
   id="svg2"
   version="1.1"
   inkscape:version="0.92.1 r15371"
   sodipodi:docname="logo.svg">
  <defs
     id="defs4" />
  <sodipodi:namedview
     id="base"
     pagecolor="#ffffff"
     bordercolor="#666666"
     borderopacity="1.0"
     inkscape:pageopacity="0.0"
     inkscape:pageshadow="2"
     inkscape:zoom="0.7"
     inkscape:cx="173.33333"
     inkscape:cy="163.12938"
     inkscape:document-units="px"
     inkscape:current-layer="layer1"
     showgrid="false"
     fit-margin-top="25"
     fit-margin-left="0"
     fit-margin-right="0"
     fit-margin-bottom="25"
     units="px"
     inkscape:window-width="1414"
     inkscape:window-height="820"
     inkscape:window-x="298"
     inkscape:window-y="78"
     inkscape:window-maximized="0"
     showguides="true"
     inkscape:guide-bbox="true" />
  <metadata
     id="metadata7">
    <rdf:RDF>
      <cc:Work
         rdf:about="">
        <dc:format>image/svg+xml</dc:format>
        <dc:type
           rdf:resource="http://purl.org/dc/dcmitype/StillImage" />
        <dc:title />
      </cc:Work>
    </rdf:RDF>
  </metadata>
  <g
     inkscape:label="Capa 1"
     inkscape:groupmode="layer"
     id="layer1"
     transform="translate(0,-727.36299)">
    <path
       style="fill:#757575;fill-opacity:1;stroke:none;stroke-linejoin:miter;stroke-opacity:1"
       d="m 100.00041,1007.363 c 0,-2.77 -2.22999,-5 -4.99998,-5 H 82.5005 67.50057 55.00063 c -2.76995,0 -4.99995,2.23 -4.99995,5 v 15 c 0,2.77 2.23,5 4.99995,5 h 7.49997 v 20 c 0,2.77 2.22998,5 4.99997,5 H 82.5005 c 2.76998,0 4.99997,-2.23 4.99997,-5 v -20 h 7.49996 c 2.76999,0 4.99998,-2.23 4.99998,-5 z"
       id="rect4235"
       inkscape:connector-curvature="0"
       inkscape:export-xdpi="96"
       inkscape:export-ydpi="96" />
    <path
       style="fill:#757575;fill-opacity:1;fill-rule:evenodd;stroke:none;stroke-width:1.01114953px;stroke-linecap:butt;stroke-linejoin:miter;stroke-opacity:1"
       d="m 300.00001,814.99009 c 0,-13.92042 -11.19109,-25.12711 -25.09213,-25.12711 H 50.09218 c -13.9012,0 -25.0922,11.20669 -25.0922,25.12711 v 149.74578 c 0,13.92042 11.191,25.12711 25.0922,25.12711 h 224.8157 c 13.90104,0 25.09213,-11.20669 25.09213,-25.12711 z m -23.31598,9.54241 c 0,8.32639 -2.99049,11.32626 -11.30529,11.32626 -8.3148,0 -11.30528,-2.99987 -11.30528,-11.32626 0,-8.32639 2.99048,-11.32627 11.30528,-11.32627 8.31481,0 11.30529,2.99987 11.30529,11.32627 z"
       id="rect3347"
       inkscape:connector-curvature="0"
       sodipodi:nodetypes="ssssssssssssss"
       inkscape:export-xdpi="96"
       inkscape:export-ydpi="96" />
    <path
       inkscape:connector-curvature="0"
       style="fill:#757575;fill-opacity:1;stroke:none;stroke-linejoin:miter;stroke-opacity:1"
       d="m 137.50022,772.36298 c 0,2.77 2.22999,5 4.99998,5 H 155.00014 170.00006 182.5 c 2.76999,0 4.99998,-2.23 4.99998,-5 v -15 c 0,-2.77 -2.22999,-5 -4.99998,-5 h -7.49996 v -20 c 0,-2.77 -2.22999,-5 -4.99998,-5 h -14.99992 c -2.76999,0 -4.99998,2.23 -4.99998,5 v 20 h -7.49996 c -2.76999,0 -4.99998,2.23 -4.99998,5 z"
       id="rect4235-8"
       inkscape:export-xdpi="96"
       inkscape:export-ydpi="96" />
    <path
       inkscape:connector-curvature="0"
       style="fill:#757575;fill-opacity:1;stroke:none;stroke-linejoin:miter;stroke-opacity:1"
       d="m 50.00068,772.36298 c 0,2.77 2.23,5 4.99995,5 l 12.49994,0 H 82.5005 95.00043 c 2.76999,0 4.99998,-2.23 4.99998,-5 v -15 c 0,-2.77 -2.22999,-5 -4.99998,-5 l -7.49996,0 v -20 c 0,-2.77 -2.22999,-5 -4.99997,-5 H 67.50057 c -2.76999,0 -4.99997,2.23 -4.99997,5 v 20 h -7.49997 c -2.76995,0 -4.99995,2.23 -4.99995,5 z"
       id="rect4235-1"
       inkscape:export-xdpi="96"
       inkscape:export-ydpi="96" />
    <path
       inkscape:connector-curvature="0"
       style="fill:#757575;fill-opacity:1;stroke:none;stroke-linejoin:miter;stroke-opacity:1"
       d="m 224.99979,772.36298 c 0,2.77 2.22999,5 4.99998,5 h 12.49993 14.99993 12.49994 c 2.76998,0 4.99997,-2.23 4.99997,-5 v -15 c 0,-2.77 -2.22999,-5 -4.99997,-5 h -7.49997 v -20 c 0,-2.77 -2.22998,-5 -4.99997,-5 H 242.4997 c -2.76998,0 -4.99997,2.23 -4.99997,5 v 20 h -7.49996 c -2.76999,0 -4.99998,2.23 -4.99998,5 z"
       id="rect4235-2"
       inkscape:export-xdpi="96"
       inkscape:export-ydpi="96" />
    <path
       inkscape:connector-curvature="0"
       style="fill:#757575;fill-opacity:1;stroke:none;stroke-linejoin:miter;stroke-opacity:1"
       d="m 274.99944,1007.363 c 0,-2.77 -2.22999,-5 -4.99997,-5 H 257.49953 242.4997 229.99977 c -2.76999,0 -4.99998,2.23 -4.99998,5 v 15 c 0,2.77 2.22999,5 4.99998,5 h 7.49996 v 20 c 0,2.77 2.22999,5 4.99997,5 h 14.99983 c 2.76999,0 4.99997,-2.23 4.99997,-5 v -20 h 7.49997 c 2.76998,0 4.99997,-2.23 4.99997,-5 z"
       id="rect4235-5"
       inkscape:export-xdpi="96"
       inkscape:export-ydpi="96" />
    <path
       inkscape:connector-curvature="0"
       style="fill:#757575;fill-opacity:1;stroke:none;stroke-linejoin:miter;stroke-opacity:1"
       d="m 187.49998,1007.363 c 0,-2.77 -2.22999,-5 -4.99998,-5 H 170.00006 155.00014 142.5002 c -2.76999,0 -4.99998,2.23 -4.99998,5 v 15 c 0,2.77 2.22999,5 4.99998,5 h 7.49996 v 20 c 0,2.77 2.22999,5 4.99998,5 h 14.99992 c 2.76999,0 4.99998,-2.23 4.99998,-5 v -20 H 182.5 c 2.76999,0 4.99998,-2.23 4.99998,-5 z"
       id="rect4235-9"
       inkscape:export-xdpi="96"
       inkscape:export-ydpi="96" />
    <path
       style="fill:#ffffff;fill-opacity:1;stroke:#ffffff;stroke-width:0.46875;stroke-miterlimit:4;stroke-dasharray:none;stroke-opacity:1"
       d="m 79.708587,950.12477 24.609363,-0.2662 v -7.4844 -7.4845 h 23.90625 23.90625 v 7.5 7.5 h 45.9375 45.93751 v -7.5 -7.5 l 13.35937,0.2057 13.35938,0.2056 -12.89063,0.2896 -12.89062,0.2895 v 7.4736 7.4735 h -46.87501 -46.875 v -7.5 -7.5 H 128.2242 105.25545 v 7.5 7.5 l -25.078113,-0.2181 -25.07813,-0.2181 z m -23.4375,-20.5435 c 0.79899,-0.3224 1.17187,-2.8344 1.17187,-7.8947 v -7.4219 h 12.1875 12.1875 v 7.5 7.5 h 11.24999 11.250003 v -7.5 -7.5 h 12.1875 12.1875 v 7.5 7.5 h 22.5 22.5 v -7.5 -7.5 h 35.62501 35.625 v 7.5 7.5 h 11.25 11.25 v -7.5 c 0,-6.546 0.20868,-7.4906 1.64062,-7.4259 0.9801,0.044 1.16882,0.2643 0.46875,0.5468 -0.79899,0.3224 -1.17187,2.8345 -1.17187,7.8948 v 7.4218 h -12.1875 -12.1875 v -7.5 -7.5 h -34.6875 -34.68751 v 7.5 7.5 h -23.4375 -23.4375 v -7.5 -7.5 h -11.25 -11.25 v 7.5 7.5 H 93.067947 80.880457 v -7.5 -7.5 h -11.25 -11.25 v 7.5 c 0,6.5461 -0.20868,7.4906 -1.64062,7.426 -0.9801,-0.044 -1.16882,-0.2644 -0.46875,-0.5469 z m 0,-20.625 c 0.79899,-0.3224 1.17187,-2.8344 1.17187,-7.8947 v -7.4219 h 35.62499 35.625003 v 7.5 7.5 h 11.25 11.25 v -7.5 -7.5 h 11.71875 11.71875 v 7.5 7.5 h 11.25 11.25 v -7.5 -7.5 h 35.62501 35.625 v 7.4219 c 0,5.0603 0.37288,7.5723 1.17187,7.8947 0.70007,0.2825 0.51135,0.5027 -0.46875,0.5469 -1.43194,0.065 -1.64062,-0.8799 -1.64062,-7.426 v -7.5 h -34.6875 -34.68751 v 7.5 7.5 h -12.1875 -12.1875 v -7.5 -7.5 H 162.9117 152.13045 v 7.5 7.5 h -12.1875 -12.1875 v -7.5 -7.5 H 93.067947 58.380457 v 7.5 c 0,6.5461 -0.20868,7.4906 -1.64062,7.426 -0.9801,-0.044 -1.16882,-0.2644 -0.46875,-0.5469 z m 24.60937,-27.4776 v -7.4736 l -12.89062,-0.2895 -12.89063,-0.2896 13.35938,-0.2056 13.35937,-0.2057 v 7.5 7.5 h 22.968743 22.96875 v -7.5 -7.5 h 46.875 46.87501 v 7.5 7.5 h 11.25 11.25 v -7.5 -7.5 h 12.1875 12.1875 v 7.4219 c 0,5.0603 0.37288,7.5723 1.17187,7.8947 0.70007,0.2825 0.51135,0.5027 -0.46875,0.5469 -1.43194,0.065 -1.64062,-0.8799 -1.64062,-7.426 v -7.5 h -11.25 -11.25 v 7.5 7.5 h -12.1875 -12.1875 v -7.5 -7.5 h -45.93751 -45.9375 v 7.5 7.5 H 104.7867 80.880457 Z"
       id="path3721"
       inkscape:connector-curvature="0"
       sodipodi:nodetypes="ccccccccccccccccccccccccccccccscccccccccccccccccccccccsccscccccccccccccccccccccccscccscccccccccccccccccccsccscccccccccccccccccccsccccccccccccccccccccccccsccscccccccccccccccc"
       inkscape:export-xdpi="96"
       inkscape:export-ydpi="96" />
    <text
       xml:space="preserve"
       style="font-style:normal;font-weight:normal;font-size:37.5px;line-height:1.25;font-family:sans-serif;letter-spacing:0px;word-spacing:0px;fill:#000000;fill-opacity:1;stroke:none;stroke-width:0.9375"
       x="102.23988"
       y="842.125"
       id="text4546"
       inkscape:export-xdpi="96"
       inkscape:export-ydpi="96"><tspan
         sodipodi:role="line"
         id="tspan4544"
         x="102.23988"
         y="842.125"
         style="font-style:normal;font-variant:normal;font-weight:bold;font-stretch:normal;font-size:45px;font-family:monospace;-inkscape-font-specification:'monospace Bold';fill:#ffffff;fill-opacity:1;stroke-width:0.9375">GHDL</tspan></text>
  </g>
</svg>
