<svg version="1" xmlns="http://www.w3.org/2000/svg" width="470.667" height="470.667" viewBox="0 0 353.000000 353.000000"><path d="M72 5c-1.8 1.8-2 3.3-2 13.5V30h-4.6c-8.1 0-8.4.5-8.4 12.8 0 7.1.4 11.2 1.2 12 .9.9 7.8 1.2 24.9 1.2 28.4 0 26.9.7 26.9-13 0-11-1.1-12.8-8.3-13.2l-5.2-.3-.3-12c-.2-9.8-.5-12.2-1.9-13.3-1.1-.7-5.1-1.2-11-1.2-8 0-9.6.3-11.3 2zM165 5c-1.8 1.8-2 3.3-2 13.5V30h-4.9c-7.4 0-8.1 1.2-8.1 13 0 7.6.4 10.2 1.6 11.4 2.3 2.4 47.5 2.4 49.8 0 1.2-1.2 1.6-3.8 1.6-11.4 0-11.8-.7-13-8.1-13H190V18.5C190 3.3 189.7 3 176.5 3c-8.2 0-9.8.3-11.5 2zM258.7 4.2c-1.4 1.1-1.7 3.5-1.9 13.3l-.3 12-5.2.3c-7.2.4-8.3 2.2-8.3 13.2 0 13.7-1.5 13 26.9 13 17.1 0 24-.3 24.9-1.2.8-.8 1.2-4.8 1.2-11.4 0-12.2-.7-13.4-8.1-13.4H283V18.5C283 3.4 282.7 3 269.7 3c-5.9 0-9.9.5-11 1.2zM47.5 71.6c-5.8 2-10.6 6.4-14 12.5l-3 5.4v174l3 5.4c1.6 2.9 4.5 6.6 6.4 8.2 7.6 6.2.5 5.9 136.6 5.9s129 .3 136.6-5.9c1.9-1.6 4.8-5.3 6.4-8.2l3-5.4v-174l-3-5.4c-1.6-2.9-4.5-6.6-6.4-8.2-7.6-6.2-.4-5.9-137-5.8-105.5 0-125.2.3-128.6 1.5zm88.3 20c1.4 1 2.2 2.5 2.2 4.5 0 3.2-.6 3.5-3.4 1.4-4.7-3.5-11-.1-12.1 6.5-1.5 8.8 2 16.4 7.3 15.8 2.2-.2 2.8-.9 3-3.6.3-2.9.1-3.2-2.2-3.2-2.2 0-2.6-.4-2.6-3 0-3 .1-3 5.5-3h5.5v8c0 7.8-.1 8-3 9.5-1.6.8-5 1.5-7.5 1.5-3.7 0-5.1-.6-8-3.3-8.5-7.8-6.6-27.8 3-31.7 3.3-1.4 9.9-1.1 12.3.6zm15.2 5.9v6.5h9V91h7l-.2 17.2-.3 17.3-3.2.3-3.3.3V110h-9v16.1l-3.2-.3-3.3-.3-.3-17.3L144 91h7v6.5zm39-5c4.5 2.3 6.3 6.8 6.3 15.5 0 12.8-3.6 16.7-15.9 17.2l-6.9.3-.3-17.3L173 91h7c4.4 0 8.2.6 10 1.5zm21 12.5v13.9l7.3.3 7.2.3v6h-21l-.3-17.3L204 91h7v14zm83.3-8.8c2.5 1.3 3.7 5 3.7 11.3 0 4.3-.5 6-2.4 8.2-2.2 2.6-3 2.8-9.5 2.8-9.1 0-11.2-1.8-11.9-9.9-.7-8.8 1.9-12.9 8.8-13.9 3.2-.4 9 .3 11.3 1.5zM91 166v8h48v-16h101v16h23v-16h13c9.6 0 13.2.3 13.5 1.2.9 3 1 16.8 0 16.5-.5-.2-1.1-3.8-1.3-8l-.3-7.7H265v16h-27v-16h-97v16H89v-16h-8.2c-4.6 0-9-.5-9.8-1-1-.7 1.9-1 9.3-1H91v8zm50 22v8h23v-16h26v16h23v-16h38c29.6 0 38.2.3 38.5 1.2.9 3 1 16.8 0 16.5-.5-.2-1.1-3.8-1.3-8l-.3-7.7H215v16h-27v-16h-22v16h-27v-16H66v6.7c0 5.9-1.2 10.8-2.2 9.3-.2-.3-.2-4.4 0-9.3l.3-8.7H141v8zm-50 22v8h23v-16h27v16h47v-16l38.3.2 38.2.3.3 7.7.3 7.8H288v-7.4c0-4.2.5-7.8 1.1-8.1 1.5-1 1.4-1 1.1 8.7l-.3 8.8H263v-16h-73v16h-51v-16h-23v16H89v-16H66v6.7c0 5.9-1.2 10.8-2.2 9.3-.2-.3-.2-4.4 0-9.3l.3-8.7H91v8zm75 22v8h97v-16l8.3.1c12.8.2 16.1 1.6 4 1.8l-10.3.1v16H164v-16h-48v16l-23.7-.2c-20.5-.1-22.2-.2-12.3-.8 6.3-.4 16.6-.8 22.8-.9l11.2-.1v-16h52v8z"/><path d="M180 108v11h2.9c4.4 0 6.1-3.1 6.1-11s-1.7-11-6.1-11H180v11zM58.2 298.2c-.8.8-1.2 4.8-1.2 11.4 0 12.2.7 13.4 8.1 13.4H70v11.5c0 15.1.3 15.5 13.3 15.5 5.9 0 9.9-.5 11-1.2 1.4-1.1 1.7-3.5 1.9-13.3l.3-12 5.2-.3c7.2-.4 8.3-2.2 8.3-13.2 0-13.7 1.5-13-26.9-13-17.1 0-24 .3-24.9 1.2zM151.6 298.6c-1.2 1.2-1.6 3.8-1.6 11.4 0 11.8.7 13 8.1 13h4.9v11.5c0 15.2.3 15.5 13.5 15.5s13.5-.3 13.5-15.5V323h4.9c7.4 0 8.1-1.2 8.1-13 0-7.6-.4-10.2-1.6-11.4-2.3-2.4-47.5-2.4-49.8 0zM244.6 299.2c-1.2 1.6-1.6 4.7-1.6 10.8 0 11 1.1 12.8 8.3 13.2l5.2.3.3 12c.2 9.8.5 12.2 1.9 13.2 1.1.8 5.1 1.3 11 1.3 13 0 13.3-.4 13.3-15.5V323h4.9c7.4 0 8.1-1.2 8.1-13.4 0-6.6-.4-10.6-1.2-11.4-.9-.9-7.8-1.2-24.9-1.2-23.4 0-23.8 0-25.3 2.2z"/></svg>